<svg xmlns="http://www.w3.org/2000/svg" xmlns:xlink="http://www.w3.org/1999/xlink" width="1000" zoomAndPan="magnify" viewBox="0 0 750 749.999995" height="1000" preserveAspectRatio="xMidYMid meet" version="1.0"><defs><g/></defs><rect x="-75" width="900" fill="#ffffff" y="-74.999999" height="899.999994" fill-opacity="1"/><rect x="-75" width="900" fill="#ffffff" y="-74.999999" height="899.999994" fill-opacity="1"/><g fill="#ff00ff" fill-opacity="1"><g transform="translate(50.566853, 464.806641)"><g><path d="M 146.0625 -44.234375 C 146.0625 -37.054688 145.046875 -30.539062 143.015625 -24.6875 C 140.992188 -18.84375 137.445312 -13.851562 132.375 -9.71875 C 127.300781 -5.582031 120.316406 -2.34375 111.421875 0 C 102.523438 2.34375 91.210938 3.515625 77.484375 3.515625 C 63.898438 3.515625 52.703125 2.34375 43.890625 0 C 35.078125 -2.34375 28.132812 -5.582031 23.0625 -9.71875 C 17.988281 -13.851562 14.472656 -18.84375 12.515625 -24.6875 C 10.566406 -30.539062 9.59375 -37.054688 9.59375 -44.234375 L 9.59375 -82.15625 C 9.59375 -85.125 10.253906 -87.269531 11.578125 -88.59375 C 12.910156 -89.925781 15.0625 -90.59375 18.03125 -90.59375 L 51.96875 -90.59375 C 54.925781 -90.59375 57.066406 -89.925781 58.390625 -88.59375 C 59.722656 -87.269531 60.390625 -85.125 60.390625 -82.15625 L 60.390625 -53.609375 C 60.390625 -50.484375 61.363281 -47.867188 63.3125 -45.765625 C 65.269531 -43.660156 69.835938 -42.609375 77.015625 -42.609375 C 83.722656 -42.609375 87.972656 -43.660156 89.765625 -45.765625 C 91.554688 -47.867188 92.453125 -50.484375 92.453125 -53.609375 L 92.453125 -160.109375 C 92.453125 -163.078125 93.113281 -165.222656 94.4375 -166.546875 C 95.769531 -167.867188 97.921875 -168.53125 100.890625 -168.53125 L 137.640625 -168.53125 C 140.597656 -168.53125 142.738281 -167.867188 144.0625 -166.546875 C 145.394531 -165.222656 146.0625 -163.078125 146.0625 -160.109375 Z M 146.0625 -44.234375 "/></g></g></g><g fill="#ff00ff" fill-opacity="1"><g transform="translate(211.614473, 464.806641)"><g><path d="M 128.28125 0 L 71.15625 0 C 51.65625 0 37.179688 -3.898438 27.734375 -11.703125 C 18.296875 -19.503906 13.578125 -31.519531 13.578125 -47.75 L 13.578125 -120.546875 C 13.578125 -136.773438 18.296875 -148.828125 27.734375 -156.703125 C 37.179688 -164.585938 51.65625 -168.53125 71.15625 -168.53125 L 128.28125 -168.53125 C 131.238281 -168.53125 133.378906 -167.867188 134.703125 -166.546875 C 136.035156 -165.222656 136.703125 -163.078125 136.703125 -160.109375 L 136.703125 -131.78125 C 136.703125 -128.820312 136.035156 -126.675781 134.703125 -125.34375 C 133.378906 -124.019531 131.238281 -123.359375 128.28125 -123.359375 L 81.21875 -123.359375 C 76.382812 -123.359375 72.796875 -122.378906 70.453125 -120.421875 C 68.117188 -118.472656 66.953125 -115.550781 66.953125 -111.65625 L 66.953125 -55.9375 C 66.953125 -52.039062 68.117188 -49.191406 70.453125 -47.390625 C 72.796875 -45.597656 76.382812 -44.703125 81.21875 -44.703125 L 128.28125 -44.703125 C 131.238281 -44.703125 133.378906 -44.039062 134.703125 -42.71875 C 136.035156 -41.394531 136.703125 -39.25 136.703125 -36.28125 L 136.703125 -8.421875 C 136.703125 -5.460938 136.035156 -3.316406 134.703125 -1.984375 C 133.378906 -0.660156 131.238281 0 128.28125 0 Z M 128.28125 0 "/></g></g></g><g fill="#ff00ff" fill-opacity="1"><g transform="translate(358.617232, 464.806641)"><g><path d="M 143.71875 0 L 24.578125 0 C 21.609375 0 19.460938 -0.660156 18.140625 -1.984375 C 16.816406 -3.316406 16.15625 -5.460938 16.15625 -8.421875 L 16.15625 -160.109375 C 16.15625 -163.078125 16.816406 -165.222656 18.140625 -166.546875 C 19.460938 -167.867188 21.609375 -168.53125 24.578125 -168.53125 L 60.859375 -168.53125 C 63.828125 -168.53125 65.972656 -167.867188 67.296875 -166.546875 C 68.617188 -165.222656 69.28125 -163.078125 69.28125 -160.109375 L 69.28125 -44.234375 L 101.359375 -44.234375 L 101.359375 -82.15625 C 101.359375 -85.125 102.019531 -87.269531 103.34375 -88.59375 C 104.664062 -89.925781 106.8125 -90.59375 109.78125 -90.59375 L 143.71875 -90.59375 C 146.6875 -90.59375 148.832031 -89.925781 150.15625 -88.59375 C 151.488281 -87.269531 152.15625 -85.125 152.15625 -82.15625 L 152.15625 -8.421875 C 152.15625 -5.460938 151.488281 -3.316406 150.15625 -1.984375 C 148.832031 -0.660156 146.6875 0 143.71875 0 Z M 143.71875 0 "/></g></g></g><g fill="#ff00ff" fill-opacity="1"><g transform="translate(521.303394, 464.806641)"><g><path d="M 94.328125 0 L 20.359375 0 C 17.398438 0 15.253906 -0.660156 13.921875 -1.984375 C 12.597656 -3.316406 11.9375 -5.460938 11.9375 -8.421875 L 11.9375 -35.8125 C 11.9375 -38.78125 12.597656 -40.925781 13.921875 -42.25 C 15.253906 -43.570312 17.398438 -44.234375 20.359375 -44.234375 L 83.328125 -44.234375 C 85.359375 -44.234375 86.878906 -44.894531 87.890625 -46.21875 C 88.910156 -47.550781 89.421875 -49.15625 89.421875 -51.03125 C 89.421875 -53.6875 88.910156 -55.632812 87.890625 -56.875 C 86.878906 -58.125 85.359375 -58.828125 83.328125 -58.984375 L 48.21875 -63.90625 C 37.289062 -65.46875 28.507812 -69.054688 21.875 -74.671875 C 15.25 -80.285156 11.9375 -89.648438 11.9375 -102.765625 L 11.9375 -127.34375 C 11.9375 -140.601562 16.226562 -150.78125 24.8125 -157.875 C 33.394531 -164.976562 45.253906 -168.53125 60.390625 -168.53125 L 125.9375 -168.53125 C 128.894531 -168.53125 131.035156 -167.867188 132.359375 -166.546875 C 133.691406 -165.222656 134.359375 -163.078125 134.359375 -160.109375 L 134.359375 -132.25 C 134.359375 -129.289062 133.691406 -127.144531 132.359375 -125.8125 C 131.035156 -124.488281 128.894531 -123.828125 125.9375 -123.828125 L 71.390625 -123.828125 C 69.359375 -123.828125 67.796875 -123.160156 66.703125 -121.828125 C 65.617188 -120.503906 65.078125 -118.832031 65.078125 -116.8125 C 65.078125 -114.78125 65.617188 -113.0625 66.703125 -111.65625 C 67.796875 -110.25 69.359375 -109.46875 71.390625 -109.3125 L 106.265625 -104.640625 C 117.191406 -103.078125 126.007812 -99.484375 132.71875 -93.859375 C 139.425781 -88.242188 142.78125 -78.882812 142.78125 -65.78125 L 142.78125 -41.203125 C 142.78125 -27.929688 138.453125 -17.742188 129.796875 -10.640625 C 121.140625 -3.546875 109.316406 0 94.328125 0 Z M 94.328125 0 "/></g></g></g><g fill="#00ffff" fill-opacity="1"><g transform="translate(62.764562, 453.432072)"><g><path d="M 146.0625 -44.234375 C 146.0625 -37.054688 145.046875 -30.539062 143.015625 -24.6875 C 140.992188 -18.84375 137.445312 -13.851562 132.375 -9.71875 C 127.300781 -5.582031 120.316406 -2.34375 111.421875 0 C 102.523438 2.34375 91.210938 3.515625 77.484375 3.515625 C 63.898438 3.515625 52.703125 2.34375 43.890625 0 C 35.078125 -2.34375 28.132812 -5.582031 23.0625 -9.71875 C 17.988281 -13.851562 14.472656 -18.84375 12.515625 -24.6875 C 10.566406 -30.539062 9.59375 -37.054688 9.59375 -44.234375 L 9.59375 -82.15625 C 9.59375 -85.125 10.253906 -87.269531 11.578125 -88.59375 C 12.910156 -89.925781 15.0625 -90.59375 18.03125 -90.59375 L 51.96875 -90.59375 C 54.925781 -90.59375 57.066406 -89.925781 58.390625 -88.59375 C 59.722656 -87.269531 60.390625 -85.125 60.390625 -82.15625 L 60.390625 -53.609375 C 60.390625 -50.484375 61.363281 -47.867188 63.3125 -45.765625 C 65.269531 -43.660156 69.835938 -42.609375 77.015625 -42.609375 C 83.722656 -42.609375 87.972656 -43.660156 89.765625 -45.765625 C 91.554688 -47.867188 92.453125 -50.484375 92.453125 -53.609375 L 92.453125 -160.109375 C 92.453125 -163.078125 93.113281 -165.222656 94.4375 -166.546875 C 95.769531 -167.867188 97.921875 -168.53125 100.890625 -168.53125 L 137.640625 -168.53125 C 140.597656 -168.53125 142.738281 -167.867188 144.0625 -166.546875 C 145.394531 -165.222656 146.0625 -163.078125 146.0625 -160.109375 Z M 146.0625 -44.234375 "/></g></g></g><g fill="#00ffff" fill-opacity="1"><g transform="translate(223.812182, 453.432072)"><g><path d="M 128.28125 0 L 71.15625 0 C 51.65625 0 37.179688 -3.898438 27.734375 -11.703125 C 18.296875 -19.503906 13.578125 -31.519531 13.578125 -47.75 L 13.578125 -120.546875 C 13.578125 -136.773438 18.296875 -148.828125 27.734375 -156.703125 C 37.179688 -164.585938 51.65625 -168.53125 71.15625 -168.53125 L 128.28125 -168.53125 C 131.238281 -168.53125 133.378906 -167.867188 134.703125 -166.546875 C 136.035156 -165.222656 136.703125 -163.078125 136.703125 -160.109375 L 136.703125 -131.78125 C 136.703125 -128.820312 136.035156 -126.675781 134.703125 -125.34375 C 133.378906 -124.019531 131.238281 -123.359375 128.28125 -123.359375 L 81.21875 -123.359375 C 76.382812 -123.359375 72.796875 -122.378906 70.453125 -120.421875 C 68.117188 -118.472656 66.953125 -115.550781 66.953125 -111.65625 L 66.953125 -55.9375 C 66.953125 -52.039062 68.117188 -49.191406 70.453125 -47.390625 C 72.796875 -45.597656 76.382812 -44.703125 81.21875 -44.703125 L 128.28125 -44.703125 C 131.238281 -44.703125 133.378906 -44.039062 134.703125 -42.71875 C 136.035156 -41.394531 136.703125 -39.25 136.703125 -36.28125 L 136.703125 -8.421875 C 136.703125 -5.460938 136.035156 -3.316406 134.703125 -1.984375 C 133.378906 -0.660156 131.238281 0 128.28125 0 Z M 128.28125 0 "/></g></g></g><g fill="#00ffff" fill-opacity="1"><g transform="translate(370.814941, 453.432072)"><g><path d="M 143.71875 0 L 24.578125 0 C 21.609375 0 19.460938 -0.660156 18.140625 -1.984375 C 16.816406 -3.316406 16.15625 -5.460938 16.15625 -8.421875 L 16.15625 -160.109375 C 16.15625 -163.078125 16.816406 -165.222656 18.140625 -166.546875 C 19.460938 -167.867188 21.609375 -168.53125 24.578125 -168.53125 L 60.859375 -168.53125 C 63.828125 -168.53125 65.972656 -167.867188 67.296875 -166.546875 C 68.617188 -165.222656 69.28125 -163.078125 69.28125 -160.109375 L 69.28125 -44.234375 L 101.359375 -44.234375 L 101.359375 -82.15625 C 101.359375 -85.125 102.019531 -87.269531 103.34375 -88.59375 C 104.664062 -89.925781 106.8125 -90.59375 109.78125 -90.59375 L 143.71875 -90.59375 C 146.6875 -90.59375 148.832031 -89.925781 150.15625 -88.59375 C 151.488281 -87.269531 152.15625 -85.125 152.15625 -82.15625 L 152.15625 -8.421875 C 152.15625 -5.460938 151.488281 -3.316406 150.15625 -1.984375 C 148.832031 -0.660156 146.6875 0 143.71875 0 Z M 143.71875 0 "/></g></g></g><g fill="#00ffff" fill-opacity="1"><g transform="translate(533.501103, 453.432072)"><g><path d="M 94.328125 0 L 20.359375 0 C 17.398438 0 15.253906 -0.660156 13.921875 -1.984375 C 12.597656 -3.316406 11.9375 -5.460938 11.9375 -8.421875 L 11.9375 -35.8125 C 11.9375 -38.78125 12.597656 -40.925781 13.921875 -42.25 C 15.253906 -43.570312 17.398438 -44.234375 20.359375 -44.234375 L 83.328125 -44.234375 C 85.359375 -44.234375 86.878906 -44.894531 87.890625 -46.21875 C 88.910156 -47.550781 89.421875 -49.15625 89.421875 -51.03125 C 89.421875 -53.6875 88.910156 -55.632812 87.890625 -56.875 C 86.878906 -58.125 85.359375 -58.828125 83.328125 -58.984375 L 48.21875 -63.90625 C 37.289062 -65.46875 28.507812 -69.054688 21.875 -74.671875 C 15.25 -80.285156 11.9375 -89.648438 11.9375 -102.765625 L 11.9375 -127.34375 C 11.9375 -140.601562 16.226562 -150.78125 24.8125 -157.875 C 33.394531 -164.976562 45.253906 -168.53125 60.390625 -168.53125 L 125.9375 -168.53125 C 128.894531 -168.53125 131.035156 -167.867188 132.359375 -166.546875 C 133.691406 -165.222656 134.359375 -163.078125 134.359375 -160.109375 L 134.359375 -132.25 C 134.359375 -129.289062 133.691406 -127.144531 132.359375 -125.8125 C 131.035156 -124.488281 128.894531 -123.828125 125.9375 -123.828125 L 71.390625 -123.828125 C 69.359375 -123.828125 67.796875 -123.160156 66.703125 -121.828125 C 65.617188 -120.503906 65.078125 -118.832031 65.078125 -116.8125 C 65.078125 -114.78125 65.617188 -113.0625 66.703125 -111.65625 C 67.796875 -110.25 69.359375 -109.46875 71.390625 -109.3125 L 106.265625 -104.640625 C 117.191406 -103.078125 126.007812 -99.484375 132.71875 -93.859375 C 139.425781 -88.242188 142.78125 -78.882812 142.78125 -65.78125 L 142.78125 -41.203125 C 142.78125 -27.929688 138.453125 -17.742188 129.796875 -10.640625 C 121.140625 -3.546875 109.316406 0 94.328125 0 Z M 94.328125 0 "/></g></g></g><g fill="#7843e6" fill-opacity="1"><g transform="translate(56.665709, 459.119357)"><g><path d="M 146.0625 -44.234375 C 146.0625 -37.054688 145.046875 -30.539062 143.015625 -24.6875 C 140.992188 -18.84375 137.445312 -13.851562 132.375 -9.71875 C 127.300781 -5.582031 120.316406 -2.34375 111.421875 0 C 102.523438 2.34375 91.210938 3.515625 77.484375 3.515625 C 63.898438 3.515625 52.703125 2.34375 43.890625 0 C 35.078125 -2.34375 28.132812 -5.582031 23.0625 -9.71875 C 17.988281 -13.851562 14.472656 -18.84375 12.515625 -24.6875 C 10.566406 -30.539062 9.59375 -37.054688 9.59375 -44.234375 L 9.59375 -82.15625 C 9.59375 -85.125 10.253906 -87.269531 11.578125 -88.59375 C 12.910156 -89.925781 15.0625 -90.59375 18.03125 -90.59375 L 51.96875 -90.59375 C 54.925781 -90.59375 57.066406 -89.925781 58.390625 -88.59375 C 59.722656 -87.269531 60.390625 -85.125 60.390625 -82.15625 L 60.390625 -53.609375 C 60.390625 -50.484375 61.363281 -47.867188 63.3125 -45.765625 C 65.269531 -43.660156 69.835938 -42.609375 77.015625 -42.609375 C 83.722656 -42.609375 87.972656 -43.660156 89.765625 -45.765625 C 91.554688 -47.867188 92.453125 -50.484375 92.453125 -53.609375 L 92.453125 -160.109375 C 92.453125 -163.078125 93.113281 -165.222656 94.4375 -166.546875 C 95.769531 -167.867188 97.921875 -168.53125 100.890625 -168.53125 L 137.640625 -168.53125 C 140.597656 -168.53125 142.738281 -167.867188 144.0625 -166.546875 C 145.394531 -165.222656 146.0625 -163.078125 146.0625 -160.109375 Z M 146.0625 -44.234375 "/></g></g></g><g fill="#7843e6" fill-opacity="1"><g transform="translate(217.713329, 459.119357)"><g><path d="M 128.28125 0 L 71.15625 0 C 51.65625 0 37.179688 -3.898438 27.734375 -11.703125 C 18.296875 -19.503906 13.578125 -31.519531 13.578125 -47.75 L 13.578125 -120.546875 C 13.578125 -136.773438 18.296875 -148.828125 27.734375 -156.703125 C 37.179688 -164.585938 51.65625 -168.53125 71.15625 -168.53125 L 128.28125 -168.53125 C 131.238281 -168.53125 133.378906 -167.867188 134.703125 -166.546875 C 136.035156 -165.222656 136.703125 -163.078125 136.703125 -160.109375 L 136.703125 -131.78125 C 136.703125 -128.820312 136.035156 -126.675781 134.703125 -125.34375 C 133.378906 -124.019531 131.238281 -123.359375 128.28125 -123.359375 L 81.21875 -123.359375 C 76.382812 -123.359375 72.796875 -122.378906 70.453125 -120.421875 C 68.117188 -118.472656 66.953125 -115.550781 66.953125 -111.65625 L 66.953125 -55.9375 C 66.953125 -52.039062 68.117188 -49.191406 70.453125 -47.390625 C 72.796875 -45.597656 76.382812 -44.703125 81.21875 -44.703125 L 128.28125 -44.703125 C 131.238281 -44.703125 133.378906 -44.039062 134.703125 -42.71875 C 136.035156 -41.394531 136.703125 -39.25 136.703125 -36.28125 L 136.703125 -8.421875 C 136.703125 -5.460938 136.035156 -3.316406 134.703125 -1.984375 C 133.378906 -0.660156 131.238281 0 128.28125 0 Z M 128.28125 0 "/></g></g></g><g fill="#7843e6" fill-opacity="1"><g transform="translate(364.716088, 459.119357)"><g><path d="M 143.71875 0 L 24.578125 0 C 21.609375 0 19.460938 -0.660156 18.140625 -1.984375 C 16.816406 -3.316406 16.15625 -5.460938 16.15625 -8.421875 L 16.15625 -160.109375 C 16.15625 -163.078125 16.816406 -165.222656 18.140625 -166.546875 C 19.460938 -167.867188 21.609375 -168.53125 24.578125 -168.53125 L 60.859375 -168.53125 C 63.828125 -168.53125 65.972656 -167.867188 67.296875 -166.546875 C 68.617188 -165.222656 69.28125 -163.078125 69.28125 -160.109375 L 69.28125 -44.234375 L 101.359375 -44.234375 L 101.359375 -82.15625 C 101.359375 -85.125 102.019531 -87.269531 103.34375 -88.59375 C 104.664062 -89.925781 106.8125 -90.59375 109.78125 -90.59375 L 143.71875 -90.59375 C 146.6875 -90.59375 148.832031 -89.925781 150.15625 -88.59375 C 151.488281 -87.269531 152.15625 -85.125 152.15625 -82.15625 L 152.15625 -8.421875 C 152.15625 -5.460938 151.488281 -3.316406 150.15625 -1.984375 C 148.832031 -0.660156 146.6875 0 143.71875 0 Z M 143.71875 0 "/></g></g></g><g fill="#7843e6" fill-opacity="1"><g transform="translate(527.402249, 459.119357)"><g><path d="M 94.328125 0 L 20.359375 0 C 17.398438 0 15.253906 -0.660156 13.921875 -1.984375 C 12.597656 -3.316406 11.9375 -5.460938 11.9375 -8.421875 L 11.9375 -35.8125 C 11.9375 -38.78125 12.597656 -40.925781 13.921875 -42.25 C 15.253906 -43.570312 17.398438 -44.234375 20.359375 -44.234375 L 83.328125 -44.234375 C 85.359375 -44.234375 86.878906 -44.894531 87.890625 -46.21875 C 88.910156 -47.550781 89.421875 -49.15625 89.421875 -51.03125 C 89.421875 -53.6875 88.910156 -55.632812 87.890625 -56.875 C 86.878906 -58.125 85.359375 -58.828125 83.328125 -58.984375 L 48.21875 -63.90625 C 37.289062 -65.46875 28.507812 -69.054688 21.875 -74.671875 C 15.25 -80.285156 11.9375 -89.648438 11.9375 -102.765625 L 11.9375 -127.34375 C 11.9375 -140.601562 16.226562 -150.78125 24.8125 -157.875 C 33.394531 -164.976562 45.253906 -168.53125 60.390625 -168.53125 L 125.9375 -168.53125 C 128.894531 -168.53125 131.035156 -167.867188 132.359375 -166.546875 C 133.691406 -165.222656 134.359375 -163.078125 134.359375 -160.109375 L 134.359375 -132.25 C 134.359375 -129.289062 133.691406 -127.144531 132.359375 -125.8125 C 131.035156 -124.488281 128.894531 -123.828125 125.9375 -123.828125 L 71.390625 -123.828125 C 69.359375 -123.828125 67.796875 -123.160156 66.703125 -121.828125 C 65.617188 -120.503906 65.078125 -118.832031 65.078125 -116.8125 C 65.078125 -114.78125 65.617188 -113.0625 66.703125 -111.65625 C 67.796875 -110.25 69.359375 -109.46875 71.390625 -109.3125 L 106.265625 -104.640625 C 117.191406 -103.078125 126.007812 -99.484375 132.71875 -93.859375 C 139.425781 -88.242188 142.78125 -78.882812 142.78125 -65.78125 L 142.78125 -41.203125 C 142.78125 -27.929688 138.453125 -17.742188 129.796875 -10.640625 C 121.140625 -3.546875 109.316406 0 94.328125 0 Z M 94.328125 0 "/></g></g></g><g fill="#ff00ff" fill-opacity="1"><g transform="translate(673.468273, 464.806641)"><g/></g></g><g fill="#00ffff" fill-opacity="1"><g transform="translate(685.665982, 453.432072)"><g/></g></g><g fill="#7843e6" fill-opacity="1"><g transform="translate(679.567128, 459.119357)"><g/></g></g></svg>